<svg version="1" xmlns="http://www.w3.org/2000/svg" width="1333.333" height="1333.333" viewBox="0 0 1000.000000 1000.000000"><path d="M398.2 1.7c-.5 1-2.1 5.2-3.6 9.3-1.5 4.1-3 8.2-3.3 9-.4.8-.7 1.7-.8 2-.1.3-.5 1.2-.8 2-.4.8-1.7 4.4-3.1 8-5.9 16.2-12.8 34.7-13.6 36.5-.6 1.1-2.7 6.7-4.8 12.5-3.2 8.7-13.3 35.5-25.7 68.5-1.3 3.3-4.2 11.2-6.5 17.5-2.3 6.3-4.8 12.8-5.5 14.5-.7 1.6-4.5 11.8-8.5 22.5-3.9 10.7-7.5 20.4-8 21.5-.5 1.1-7 18.4-14.5 38.5s-14.5 38.7-15.6 41.5c-2.7 7-17.3 45.9-39.8 106-10.5 28-20.9 55.5-23 61-7.2 18.7-36.2 96-36.6 97.5-.2.8-2.7 7.6-5.5 15s-7.4 19.6-10.2 27c-2.7 7.4-5.4 14.4-5.9 15.5-.5 1.1-8.1 21.3-16.9 45-8.8 23.6-16.4 43.9-16.9 45-.5 1.1-5.5 14.4-11.1 29.5-5.7 15.1-11.8 31.5-13.7 36.5-2 4.9-5.1 13.3-7 18.5-1.9 5.2-4.7 12.9-6.3 17-3.1 8.1-4.2 11.2-4.5 12-.1.3-.5 1.4-1 2.5-.4 1.1-2.1 5.6-3.8 10-1.6 4.4-4 10.7-5.3 14-1.3 3.3-5.7 15.2-9.9 26.5-4.1 11.3-8 21.4-8.5 22.5-1.4 3.2-34 90.5-34 91.1 0 .2 46.7.4 103.8.4h103.8l2.6-7.7c1.4-4.3 6.5-19.1 11.3-32.8 4.8-13.8 9-26.1 9.5-27.5.5-1.4 5-14.4 10-29 5.1-14.6 11.1-32.1 13.5-39 7.2-21 15.5-45 19-55 1.8-5.2 5.9-16.9 9-26 3-9.1 6.1-17.5 6.7-18.7l1.1-2.2h191.8c111 0 192.1.4 192.4.9.5.8 11.4 32 18 51.5 1.3 3.8 5.4 15.5 9 26 3.7 10.4 7.2 20.8 8 23 .7 2.2 5.2 15.2 10 29 4.7 13.7 11.1 32.2 14.1 41 3 8.8 9.4 27.2 14.2 41l8.7 25 103.8.3c59.4.1 103.7-.2 103.7-.7 0-.5-1.3-4.2-2.9-8.2-1.6-4.1-10.4-27.4-19.6-51.9-9.1-24.5-17-45.4-17.4-46.5-1.1-2.3-2.3-5.6-2.7-7-.5-1.8-28.4-75.9-29.4-78-1-2.3-37.6-100-39.7-106-.7-2.2-1.8-4.9-2.3-6-.5-1.1-3.9-10.1-7.5-20-3.7-9.9-7.7-20.7-9-24-1.2-3.3-4.3-11.4-6.8-18-2.4-6.6-18.4-49.1-35.5-94.5-17-45.4-40.5-107.9-52.2-139-11.6-31.1-22.5-60.1-24.2-64.5-4.3-11.2-6.9-17.9-12.9-34-11.4-30.4-14.1-37.6-20.2-54-3.5-9.4-8.8-23.3-11.6-31-2.9-7.7-7.1-18.7-9.2-24.5-2.2-5.8-4.9-13-6.1-16-1.1-3-2.4-6.4-2.8-7.5-.5-1.1-2.5-6.5-4.5-12-2.1-5.5-4.9-13.2-6.4-17-1.5-3.9-13.7-36.4-27.2-72.2L613.5 0H506.3C405.2 0 399 .1 398.2 1.7zM529.4 276c16 53.6 35.2 110.9 51.8 154.5 1.6 4.4 3.1 8.6 3.3 9.5.2.8 2.9 8.5 6 17 3.2 8.5 6.1 16.6 6.5 18 .5 1.4 2.7 7.7 5 14s6.6 18.5 9.6 27 5.8 16.4 6.3 17.5c.5 1.1 2.1 5.4 3.5 9.5s3.4 10 4.5 13c5.8 15.9 9.4 25.8 10.1 28.2l.9 2.8H375.1l4.5-12.8c2.5-7 5.4-15 6.4-17.7 4.3-12.3 8.2-23.1 8.7-24.5.3-.8.7-2 .9-2.5.1-.6 4.4-12.5 9.4-26.5 25.1-69.8 25.4-70.5 38.9-109 3.4-9.6 6.6-18.4 7.1-19.5 2.6-5.5 13.7-38.5 19.6-58 6.8-22.7 13.6-45.6 15.9-53.5 1.2-4.1 5.1-17.1 5.9-19.5.2-.6.6-1.7.9-2.5.3-.8 1.1-3.5 1.7-6 2.2-8.6 5.3-17.5 6.4-18.2.6-.4 3.1-.6 5.7-.5l4.6.1 17.7 59.6z"/></svg>