<svg version="1" xmlns="http://www.w3.org/2000/svg" width="2666.667" height="2666.667" viewBox="0 0 2000.000000 2000.000000"><path d="M1035 92c0 .5.5 1 1.1 1 .5 0 .7-.5.4-1-.3-.6-.8-1-1.1-1-.2 0-.4.4-.4 1zM1029 96c0 .5.5 1 1.1 1 .5 0 .7-.5.4-1-.3-.6-.8-1-1.1-1-.2 0-.4.4-.4 1zM993.5 96.9c-.3.5-.2 1.2.3 1.5.5.3.9-.1.9-.9 0-1.7-.3-1.9-1.2-.6zM1007.4 97.8c.4.3 1.4.7 2.2.8.9.1 1.3 0 1-.4-.4-.3-1.4-.7-2.2-.8-.9-.1-1.3 0-1 .4zM983.7 100.2c-.7.5-2.8.8-4.7.8-5.9.1-9 .5-9 1.1 0 1.4-8.2 1.9-9.9.7-1.3-1-1.4-1-.3.2 1 1.2 0 1.8-6.5 3.8-4.3 1.3-8.5 2.4-9.3 2.5-.8.1-1.7.4-2 .7-.3.3-3.9 2.1-8 4s-9.1 4.5-11.1 5.7c-2 1.2-4 1.9-4.3 1.6-.3-.4-.6-.1-.6.6s-.4 1-.9.7c-.5-.3-1.1.1-1.5.9-.3.8-1.2 1.5-2.1 1.5-.8 0-1.5.4-1.5.9s-1.6 1.6-3.5 2.5c-1.9.9-3.5 2.2-3.5 2.8 0 .6-.3.9-.6.6-.3-.3-1.5.4-2.8 1.6-4.5 4.3-7.9 6.4-9.5 5.9-1.3-.4-1.3-.3-.2.5 1.2.8.8 1.5-1.8 3.8-1.8 1.5-4 3.5-4.9 4.3-.9.9-1.9 1.6-2.3 1.6-.4 0-1.1.4-1.6.9s-.3.6.5.2c.6-.4 1.2-.5 1.2-.1 0 .5-1.2 1.9-7.5 8.9-.5.6-2.3 3-3.9 5.3-2.9 4.4-4.3 5.5-3.2 2.7.3-.9.2-1.2-.5-.9-.5.4-.7 1.5-.4 2.6.4 1.1.2 1.9-.4 1.9-.6 0-1.1.6-1.1 1.4 0 .7-1 2.1-2.2 3-1.3.9-1.8 1.4-1.1 1.1.7-.3-.3 2.1-2.1 5.4-1.9 3.3-3.7 7-4.1 8.1-.4 1.4-1.2 1.9-2.2 1.5-1.2-.4-1.3-.2-.5.7.8 1 .1 3.4-2.7 9.4-2.1 4.4-4.1 9.2-4.5 10.7-.3 1.5-1.1 2.5-1.6 2.2-.5-.3-.7 0-.4.8.3.8 0 1.8-.5 2.2-.6.3-.9 1.1-.6 1.6.4.5.1.9-.4.9-.6 0-1 .3-1 .7.3 2.1-.2 3.3-1.3 2.7-.6-.4-.8-.3-.5.4.9 1.4-4.4 13.2-5.6 12.5-.6-.3-.7-.1-.3.5.4.7.4 1.8-.1 2.4-.4.7-.8 1.9-1 2.7-.1.8-.8 1.8-1.5 2.2-.7.5-1 .9-.6.9.7 0-.5 3.2-5.7 14.6-1.4 3.2-3.3 7.4-4.1 9.2-.8 1.8-1.9 3-2.4 2.7-.5-.3-.7 0-.4.8.2.7-.5 3.6-1.7 6.3-1.2 2.7-2.3 5.1-2.4 5.4-.4 1.1-2.4 5.8-5 11.5-1.5 3.3-3.7 8.2-5 11-1.2 2.7-3.3 7.2-4.6 10-1.2 2.7-2.4 5.4-2.5 6-.1.5-2.7 6.4-5.7 13-9 19.8-9.4 20.9-10.2 23.3-.3 1.2-1.1 1.9-1.7 1.6-.6-.4-.8-.2-.4.4.3.6-.5 3.5-1.8 6.4-4.1 8.8-5.9 13.3-5.8 14 .1.5-.3.8-.8.8-.6 0-1 .7-1 1.5s-.4 2.3-1 3.3c-1.1 2-8 17.2-8 17.7 0 .3-5.8 13-9.8 21.5-.9 1.9-1.7 3.7-1.7 4-.3 1.2-3.2 7.7-9 20.5-1.3 2.7-3.5 7.8-5 11.2-1.6 3.6-3.2 6-3.8 5.6-.6-.4-.7-.1-.3.6.7 1.1-1 5.7-6.7 18.1-1.1 2.5-2.3 4.7-2.6 5-.3.3-.7 1.2-.8 2-.3 1.6-8.2 19.5-9.8 22-.5.8-1 2-1.1 2.6-.5 3-5.9 13.2-6.7 12.7-.6-.4-.7-.1-.2.6.9 1.6-2.5 9.2-3.8 8.4-.6-.3-.7-.1-.3.6.8 1.2-6.9 20.1-8.6 21.2-.5.3-1 1-.9 1.5.1 2.4-1.2 5.3-2.2 4.7-.5-.3-.7-.2-.4.4.3.5 0 2.1-.8 3.6s-1.2 2.7-1 2.7c.2 0-.9 2.6-2.4 5.7-1.5 3.2-3.6 7.7-4.6 10-1.1 2.4-2.3 4.3-2.8 4.3-.4 0-.5.4-.2 1 .9 1.4-2.5 8.1-3.8 7.3-.6-.3-.7-.1-.3.6 1 1.6-4.4 14.2-5.7 13.4-.6-.3-.7-.1-.4.4.8 1.3-4.2 13.3-5.5 13.3-.5 0-.7.4-.4.9.3.4-.3 2.6-1.3 4.7-1 2.2-4.5 10-7.7 17.4-3.2 7.4-6.2 13.6-6.6 13.8-.4.2-.8 1.2-.8 2.3 0 1-.4 1.9-.8 1.9-.5 0-.9.6-.9 1.2 0 .7-.9 3.4-2.1 6.1-1.2 2.6-2.1 5-2.1 5.2 0 .3-.7 1.8-1.5 3.3-.8 1.5-2.5 5-3.8 7.9-1.2 2.8-2.6 4.9-3.2 4.6-.5-.3-.6-.1-.2.5.7 1.1-.5 4.1-6.5 16.8-1.6 3.4-2.9 6.4-2.9 6.7 0 .3-2 4.8-4.5 10.1s-4.5 9.9-4.5 10.1c0 .2-1.3 3.2-2.9 6.7-1.5 3.5-3.7 8.2-4.6 10.5-1 2.3-2.2 4-2.6 3.8-.4-.3-.5.5-.1 1.7.4 1.6.2 1.9-.8 1.3-.9-.5-1.1-.4-.6.4.4.6.4 1.7-.1 2.4-.6.7-2.6 5.1-4.7 10-2 4.8-5.1 11.8-6.8 15.5-1.8 3.7-3.3 6.9-3.3 7.2-.4 2.2-3.1 8-3.7 8-.4 0-.8.5-.8 1.1 0 1-3.3 9-5 12.1-.6 1-1 2.5-1 3.3 0 .8-.4 1.5-1 1.5-.5 0-1 .6-1 1.3 0 .7-.9 3.2-2 5.5-1.1 2.2-2 4.6-2 5.2 0 .5-.5 1-1.2 1-.6 0-.9.3-.5.6.3.3-.5 2.7-1.8 5.2-1.3 2.6-2.7 5.9-3 7.4-.4 1.6-1.1 2.8-1.6 2.8s-.9.8-.9 1.8-.6 2.6-1.4 3.7c-.7 1.1-1.7 3.1-2.1 4.5-1.4 4.3-6.7 15.5-7.6 15.8-.5.2-.7.7-.4 1.2.2.4-.9 3.5-2.5 6.9-1.7 3.4-3 6.3-3 6.6 0 .3-1.5 3.8-3.3 7.7-1.8 4-3.9 8.8-4.6 10.5-.7 1.8-1.8 3-2.4 2.6-.6-.3-.7-.1-.3.6 1 1.6-.3 5.3-1.6 4.5-.7-.4-.8-.2-.4.5.4.6.4 1.7-.2 2.4-.5.7-1.6 3-2.4 5.2-1.5 3.8-6.2 14.5-9.3 21-.7 1.6-2.3 5.2-3.5 8-1.2 2.7-3 6.8-4 9s-2.9 6.5-4.3 9.5c-1.3 3-3.4 7.6-4.6 10.3-1.1 2.6-2.9 6.6-4 9-1 2.3-3.1 6.8-4.5 9.9-1.4 3.1-2.6 6-2.6 6.3 0 .3-1.3 3.3-3 6.7-1.6 3.3-3 6.6-3 7.4 0 .8-.4 1.4-1 1.4-.5 0-1 .7-1 1.5s-.8 2.9-1.8 4.7c-1 1.8-2.2 4.6-2.6 6.1-.4 1.7-1.1 2.5-1.8 2.1-.6-.4-.8-.3-.5.4.7 1-.6 4.4-5.9 15.7-1.5 3.3-2.9 6.2-2.9 6.5-.3.8-3.5 8.1-5.5 12.5-1.1 2.2-3.4 7.6-5.3 12s-4.9 11.1-6.7 15c-3.3 7.2-5.7 12.7-8.1 18.2-.7 1.7-1.7 2.9-2.3 2.6-.5-.4-.6-.1-.1.6.4.7-.3 3.5-1.7 6.4-1.4 2.9-3.5 7.5-4.8 10.4-1.3 2.9-2.6 5.1-2.9 4.9-.3-.2-.7.6-.7 1.8-.1 1.2-1.8 5.7-3.8 10.1-2.1 4.4-4.1 8.9-4.6 10-.5 1.1-2.5 5.5-4.5 9.8-1.9 4.3-3.5 8.3-3.5 8.8 0 .6-.5.7-1.2.3-.7-.4-.8-.3-.4.4.4.6-.2 3-1.4 5.4-1.1 2.3-2 4.7-2 5.4 0 .7-.5 1.6-1.2 2-.6.4-.8.3-.5-.3.3-.5 0-1-.8-1-1.1 0-1.2.4-.4 1.3 1.2 1.5.2 5.7-1.2 4.9-.5-.3-.6.1-.3.9.3.9.1 1.6-.6 1.6-.6 0-.8.4-.5 1 .3.5.2 1-.4 1-.6 0-.8.6-.5 1.4.3.7-.1 2-.8 2.7-.7.8-1.4 2.1-1.6 2.9-.2.8-.7 1.7-1 2-.4.3-.9 1.4-1 2.5-.2 1.1-.8 2.3-1.4 2.6-.5.3-.9.9-.9 1.3.3 2 0 2.6-.9 2.1-.5-.3-.7 0-.4.9.3.8-.6 3.5-2 6-1.4 2.6-2.5 4.7-2.5 4.9.1.4-1.9 5.1-4.8 11.7-1.6 3.6-4.2 9.5-5.8 13.2-1.6 3.7-3.2 6.5-3.6 6.2-.4-.2-.7.2-.6.9.1 3.3-.4 4.8-1.4 4.1-.7-.4-1-.1-.7.7.3.8-.2 3-1.2 4.9-1 1.9-3.5 7.4-5.5 12.2-2.1 4.8-4.1 8.5-4.6 8.3-.4-.3-.5.5-.1 1.7.3 1.4.1 1.9-.6 1.4-.8-.4-1-.2-.6.7.3.8-.2 2.1-1 3-.8.8-1.3 1.7-1 1.9.2.3-1.2 4.1-3.2 8.4-2 4.3-5.3 11.6-7.4 16.1-2.1 4.5-3.5 8.4-3.2 8.7.3.3 0 .6-.6.6-.7 0-1.2.6-1.2 1.2 0 .7-.6 2.4-1.3 3.8-.7 1.4-2.3 5.1-3.6 8.2-1.3 3.2-2.8 5.8-3.3 5.8s-.7.4-.4.9c.3.5-.6 3-1.9 5.7-1.4 2.7-2.5 5.5-2.5 6.2 0 .7-.5 1-1.2.6-.6-.4-.8-.3-.5.3.8 1.3-10 25.9-11.3 25.6-.5-.2-.7.4-.4 1.2.3.8-.1 2.7-1 4.2-1.5 2.9-3.9 8.4-5 11.6-.3 1-1 1.5-1.6 1.2-.5-.3-.7 0-.4.8.6 1.7-3 9-4 8-.4-.4-.4 0 0 1 .3 1-.1 2.8-1 4.2-.9 1.3-1.6 3.1-1.6 4 0 .8-.4 1.5-1 1.5-.5 0-.9.3-.8.7.2 1.4-4.4 12.3-5.3 12.3-.3 0-.6.6-.6 1.2 0 1.2-8.8 21.8-12 28-.7 1.5-1.3 3-1.3 3.3 0 .3-.7 2-1.7 3.8-.9 1.7-1.7 3.4-1.8 3.7-.2 2.1-2.9 6.9-3.6 6.4-.5-.3-.6.1-.4.8.3.8-.8 4-2.3 7.3-1.6 3.3-3.2 7-3.6 8.3-.4 1.2-1.2 1.9-1.8 1.6-.7-.5-.8-.2-.3.5.4.7-.3 3.5-1.7 6.4-1.4 2.9-4.5 9.6-6.8 14.9-2.4 5.6-4.7 9.5-5.3 9.1-.6-.3-.7-.1-.3.6.8 1.3-4.4 14.2-5.4 13.6-.3-.2-.7.6-.8 1.8-.3 3.4-8.8 21.7-9.7 20.9-.5-.4-.5-.2-.1.5s-.1 2.7-1.1 4.5c-1.7 3.3-1.9 3.9-2.2 5.9 0 .5-.6.7-1.3.3-.6-.4-.8-.3-.4.4 1 1.6-2.6 8.5-3.7 7-.5-.9-.6-.6-.2.8.3 1.3-.6 4.7-2.5 8.7-1.6 3.6-3 7-3 7.7 0 .6-.5.8-1.2.4s-.8-.3-.4.5c.4.6.1 2.2-.6 3.4-.8 1.2-2.2 4.3-3.2 6.9-1 2.7-2.1 4.8-2.5 4.8-.4 0-.8.6-.8 1.4 0 2.6-9.7 23.5-10.7 22.9-.5-.3-.6-.1-.2.5.4.6-.5 3.7-1.9 6.9-1.5 3.2-3.1 6.7-3.6 7.8-1 2.2-2.6 6.6-2.8 7.7-.1.4-.9 2.7-1.7 5-1.9 5.3-4.9 18.4-6.1 25.8-1 7-.9 38.9.2 45.5.4 2.7.8 5.8.9 6.7 0 1 .5 1.8 1 1.8s.7.2.4.6c-.3.3.2 3.5 1.2 7.2s2.2 7.8 2.5 9.2c.4 1.4 1.1 3.5 1.6 4.7 1 2.4 1.4 3.4 5.3 12.6 1.4 3.1 2.2 5.7 1.8 5.7-.4 0 0 .5.8 1s1.5 1.3 1.5 1.7c0 .4.9 2.1 2 3.8 1 1.6 3.1 5 4.6 7.5 1.6 2.5 3.3 5 3.9 5.7.5.7 1 1.5 1 1.8 0 .4.6 1.2 1.3 1.9.6.7 2.3 2.8 3.7 4.7 3.4 4.6 20.7 21.9 22 21.9.5 0 1 .7 1 1.5s.3 1.4.7 1.3c.5-.2 2.9 1.2 5.5 3.1 4.1 2.9 4.6 3.7 3.5 5-1 1.4-1 1.4.5.3 1.5-1.2 2.3-1 6 1.5 13.6 9.2 39.9 19.5 55.8 21.9 1.9.3 4.6.7 6 .9 17.1 2.6 36 2.2 52.5-1.1 2.2-.4 5.2-.8 6.8-.8 1.5-.1 2.7-.4 2.7-.7 0-.4 2.1-1.2 4.7-1.8 2.7-.6 6.6-1.9 8.8-2.7 10.9-4.4 11.9-4.7 12.7-4.6.5.1.8-.2.8-.7 0-.5 1.2-1.2 2.7-1.6 1.5-.3 3-1 3.3-1.4.3-.4 2.5-1.7 5-2.9 6-3 10-5.4 12.1-7.2.9-.8 3.4-2.6 5.4-4 3.6-2.4 10.9-8.7 16.7-14.3 1.6-1.5 3.3-2.5 3.8-2.2.6.3.7 0 .4-.8-.3-.8.5-2.3 1.8-3.3 1.3-1.1 4.5-4.8 7.2-8.4 2.7-3.6 5.6-7 6.3-7.7.8-.6 1.5-1.5 1.5-2 .1-.4 1.2-2.5 2.5-4.6 3.4-5.3 16.1-31 17.8-35.7.3-1 2.6-6.6 3.8-9.2.6-1.5 1.5-2.4 2.1-2.1.5.3.6.1.3-.4-.6-1 3.7-12.2 5.1-13.3.4-.3.7-1.1.8-1.8.2-2.9.5-3.3 1.6-2.6.6.4.8.3.5-.3-.7-1 1.8-8.3 3.2-9.3.3-.3.7-1.2.9-2 .4-1.6.9-2.8 6.3-14.5 1.8-3.9 3.3-7.2 3.3-7.5.4-1.9 3-7 3.6-7 .3 0 .7-.6.7-1.4 0-2.2 2.5-7.6 3.5-7.6.5 0 .7-.4.4-.8-.3-.5.1-1.9.7-3.3.7-1.3 2.3-5 3.6-8.2 2.1-5 2.5-5.6 4-4.5 1.4 1.2 1.5 1.1.2-.5-1.2-1.5-1.1-2.4 1.1-7 1.4-2.9 3.9-8.4 5.6-12.2 1.7-3.9 4.4-10 6.1-13.8 1.7-3.7 3.1-6.9 3.1-7.2 0-.2 1.8-4.3 4-9s4-9.1 4-9.6c0-.6.5-.7 1.2-.3.6.4.8.3.4-.4-.7-1.2 1.3-6.2 2.6-6.2.5 0 .7-.4.3-.9-.3-.5 1.2-4.7 3.3-9.3 2.2-4.6 4.2-9.3 4.6-10.6.4-1.2 1.2-2.2 1.7-2.2s.8-.3.7-.7c-.4-1.9 1.5-6.2 2.5-5.6.6.3.7.1.3-.6-.4-.6-.4-1.7.2-2.4.5-.7 1.6-3 2.4-5.2.9-2.2 2.7-6.5 4.1-9.5 1.3-3 2.8-6.5 3.2-7.8.3-1.2 1.1-2.2 1.6-2.2s.8-.3.8-.8c-.3-1.9.2-3.3 1.1-2.7.5.3.8 0 .5-.7-.3-.7.6-3.5 2-6.2s2.5-5.6 2.5-6.3c0-.8.5-1.1 1.2-.7.6.4.8.3.5-.3-.9-1.4 1.7-6.5 2.8-5.5.5.4.5.1.1-.6s-.1-2.7.7-4.5c2.4-5.1 8.7-19.4 9.2-20.7.9-2.5 1.8-3.9 2.5-3.5.5.3.6-.3.3-1.3-.2-1.1.1-2.5.9-3.3.7-.8 1.4-2.1 1.6-2.9.1-.8 1.1-3.3 2.2-5.5 2.8-5.9 6.3-13.9 6.5-15 .9-3.3 5.3-11.3 6-10.7.5.4.5.2.2-.5-.4-.6.6-4 2.1-7.5 1.6-3.4 3.7-8.2 4.7-10.5 1.6-3.6 2.1-4.1 3.4-3 1.4 1 1.4 1 .3-.5-1.1-1.3-1.1-2.1-.1-4 .7-1.3 1.6-2.6 2.1-2.9 1.2-.8 8.7-.4 11.3.6 1.6.5 1.7.5.5-.4-1.3-.9-1.2-1.1.6-1.1 1.1 0 2.6.6 3.3 1.3.8.6 1.1.7.8.2-.8-1.5 25.5-1.5 26.5-.1.6.8.8.8.8 0 0-1.6 633.9-1.6 635.9 0 .9.6 1.2.7.9 0-.9-1.4 23.4-1.3 24.4.1.5.6.8.5.8-.3 0-.6.5-1.2 1.1-1.2.5 0 .7.6.3 1.3-.6.9-.3.8.8-.1 1.3-1 2.2-1.1 3.7-.2 1.2.6 2.1 1.5 2.1 2.1 0 .6 1.2 3.6 2.6 6.7 1.4 3.1 4.4 9.7 6.6 14.7 2.2 4.9 5.1 11.4 6.4 14.3 1.4 2.9 2.2 5.8 1.8 6.4-.4.6-.3.8.2.5.6-.3 1.6.9 2.3 2.6.8 1.8 3.2 7.1 5.3 12 2.2 4.8 3.6 9.2 3.2 9.9-.4.6-.3.8.3.5.5-.3 1.8 1.3 2.8 3.6 1 2.3 2.7 6.1 3.7 8.3 1 2.3 2 5.1 2.1 6.2 0 1.1.4 1.9.8 1.6.6-.3 2.4 3.2 3.3 6.6.1.3 1.2 2.5 2.5 5s2.4 4.7 2.4 5c-.1.9 1.5 4.5 5.6 13.4 2.3 4.8 3.9 9.2 3.5 9.8-.4.7-.3.8.4.4s1.2-.2 1.2.3c0 .6 1.4 4.1 3.1 7.8 6.4 14 6.2 13.3 4.7 15.1-1.1 1.5-1.1 1.5.2.5 1.4-1 2-.2 4.4 5.5 1.6 3.7 3.9 8.8 5.2 11.4 1.3 2.7 2.4 5 2.5 5.3 0 .2 1.1 2.9 2.5 6 1.4 3 2.2 6 1.8 6.6-.4.7-.3.9.3.6.6-.4 1.8 1.3 2.8 3.6 1.9 4.5 4.1 9.5 8.6 19.5 1.6 3.5 2.6 6.9 2.2 7.4-.3.7-.1.8.5.4.7-.4 1.2-.3 1.2.2s1.3 3.8 2.9 7.3c1.6 3.5 3 6.8 3 7.4.1.5.9 2 1.7 3.2.8 1.3 1.1 2.3.7 2.3-.5 0-.3.4.3.8 1.5 1 3.5 7.2 2.7 8.5-.3.5-.2.7.4.4 1.3-.8 3.6 4 2.7 5.6-.4.7-.3.9.1.4.5-.4 2.4 2.8 4.3 7 1.8 4.3 4.5 10.2 5.8 13.2 1.4 2.9 2.6 5.8 2.7 6.5.1.6.4 1.3.7 1.6 1.3 1.3 3 6.3 2.4 7.2-.4.7-.2.8.4.4.7-.4 1.3-.2 1.3.3.2 1.8.5 2.4 3.6 9.1 3.2 6.8 5 10.7 10.3 22.9 1.7 4 4.7 10.7 6.7 14.9 1.9 4.1 3.5 8.4 3.6 9.4.1 1 .4 1.8.7 1.8.3 0 2.5 4.2 5 9.3 2.5 5 4.7 9.4 5 9.7.3.3 1.6 2.5 2.9 5 1.4 2.5 2.7 4.7 3.1 5 .3.3 2.2 2.7 4 5.5 5.1 7.5 18.2 21.4 27.1 28.8 13.6 11.3 42.2 26.4 55.1 29.1 5.8 1.3 11.9 3.2 11.4 3.6-.2.3 1 .5 2.7.6 1.8 0 7.5.6 12.7 1.2 14.5 1.9 29 1.7 43-.5 1.9-.3 5-.6 6.7-.7 1.8 0 3.3-.4 3.3-.8 0-.7 8.3-2.2 9.6-1.8.4.1 1-.2 1.3-.7.3-.4 4-1.9 8.1-3.3 4.1-1.3 9.5-3.4 11.9-4.7 2.4-1.3 5-2.3 5.7-2.3.8 0 1.4-.5 1.4-1.1 0-.6.9-.9 2-.6 1.1.3 1.8.2 1.5-.3-.6-1 2.4-2.2 3.6-1.4.5.3.8 0 .7-.6-.2-.6 1.5-2.1 3.7-3.3 2.2-1.2 4.2-2.4 4.5-2.7.3-.3 2.1-1.7 4-3s4-2.9 4.7-3.5c.6-.5 2.6-2.1 4.4-3.5 4-3 17.1-16 21.7-21.5 4.6-5.4 16.2-22.9 16.2-24.3 0-.7.5-1.2 1-1.2.6 0 1-.6 1-1.3 0-.7 1.3-3.8 2.9-6.8 1.6-3.1 4.4-10.2 6.3-15.7 2-5.6 3.8-9.8 4.2-9.5.4.4.4 0 .1-.9-.4-.9-.1-3.5.5-5.8 1.1-4.1 1.4-6 2.6-15.5.4-2.8 1.1-5.6 1.8-6.4.6-.8.7-1.2.1-.9-.7.4-1-5.7-1-17.4 0-9.9-.3-18.2-.7-18.4-.5-.3-.8-1.6-.8-2.9 0-2.8-2.3-12.3-5.5-22.5-2.4-7.7-4-11.8-8-20.5-1.3-2.8-4-8.8-6-13.5-6.7-15.1-7.7-17.4-10-22.5-5.7-12.4-8.7-19.1-8.9-20-.1-.6-1.3-3.3-2.5-6-1.3-2.8-3.3-7.3-4.6-10-2-4.5-3.4-7.6-8-18-3.4-7.8-5.9-13.5-8.2-18.5-5.2-11.3-6.3-14.2-5.7-15.1.3-.5-.2-1.2-1-1.5-.8-.3-2-2.2-2.7-4.2-.7-2.1-1.9-4.8-2.8-6.2-.9-1.3-1.5-2.4-1.3-2.5.2 0-1.1-3.1-2.8-6.8-1.7-3.7-2.8-7.3-2.4-7.9.4-.6.3-.8-.3-.5-.9.6-3.9-5.9-3.5-7.6.1-.4-.2-.7-.7-.7-.5 0-1.3-1-1.7-2.3-.4-1.2-2.8-6.9-5.4-12.7-8.3-18.2-11.8-26.5-12.2-28-.2-.8-.6-1.7-.9-2-.4-.3-2.1-3.9-3.9-8-1.8-4.1-4.8-10.8-6.6-14.8-1.9-4.1-3.4-7.5-3.4-7.8 0-.2-1.1-2.7-2.5-5.5-1.3-2.9-2.2-5.6-1.9-6 .3-.5.1-.9-.4-.9-1 0-4.5-7.3-4.5-9.5 0-.8-.3-1.5-.7-1.5-.4 0-2-3-3.5-6.8-1.6-3.7-4.6-10.4-6.7-15-2.1-4.6-3.5-8.9-3.1-9.5.3-.7.3-.9-.2-.5-1.1 1-10.8-20.9-9.9-22.4.4-.6.3-.8-.3-.5-1 .6-6-9.9-5.5-11.6.1-.4-.3-.7-.9-.7-.6 0-.9-.9-.6-2 .3-1.1.2-1.8-.3-1.5-1.1.7-3.3-5.2-2.4-6.6.4-.7.3-1-.3-.6-1.2.8-4.6-6.1-3.7-7.5.4-.7.2-.8-.4-.4-.7.4-1.2.1-1.2-.9 0-.9-.7-2.7-1.6-4-.9-1.3-1.2-3-.8-3.6.4-.8.3-.9-.4-.5s-1.2.2-1.2-.4c0-.5-.9-3-2.1-5.5-1.1-2.4-1.7-4.9-1.3-5.6.4-.7.3-.9-.3-.6-.6.4-2.8-3.5-5.3-9.1-2.3-5.3-4.8-11.1-5.6-12.7-.7-1.7-1.4-3.7-1.6-4.5-.2-.8-.6-1.7-.9-2-.6-.5-5.9-11.6-5.9-12.4 0-.2-1.6-3.9-3.5-8.1-2-4.2-3.2-8.2-2.9-8.8.4-.7.4-.9-.1-.5-1.3 1.2-3.3-3.5-2.2-5 .7-.9.6-1.1-.4-.7-1.6.6-7.3-13-6.2-14.8.3-.6.1-.7-.5-.3-1.1.6-1.6-.6-1.3-2.7 0-.4-.3-.7-.8-.7-1.2 0-4.3-7.9-3.5-9.1.3-.5 0-.8-.7-.7-.7.2-1.4-.2-1.4-.7-.1-.6-.9-2.8-1.8-5-1-2.2-1.7-4.4-1.6-4.9 0-.5-.5-1.2-1.1-1.6-.7-.4-1.3-1.9-1.3-3.3-.1-1.4-.4-2.4-.7-2.2-.3.2-1.6-2-2.9-4.8-1.2-2.9-3.1-7.1-4.2-9.4-1-2.4-1.8-4.4-1.7-4.5.1-.2-.8-2.1-2-4.3-2.2-4.1-3.9-8.3-4-9.9 0-.5-.5-1.2-1.1-1.6-.6-.3-1.3-1.5-1.6-2.6-.2-1-1.2-3.7-2.3-5.9-4.7-9.6-6.2-13.6-5.6-14.7.4-.6.3-.8-.2-.5-.6.3-1.6-.9-2.3-2.6-1.9-4.4-5-11.3-7.6-17.2-1.3-2.8-3.3-7.3-4.5-10-1.2-2.8-3.1-6.7-4.1-8.9-1.1-2.1-1.8-4.5-1.5-5.3.3-.8.2-1.2-.2-.9-.4.2-1.4-1-2.1-2.7-.8-1.8-3.3-7.4-5.7-12.5-2.3-5-4.1-9.2-3.8-9.2.2 0-.2-1-1.1-2.3-.8-1.3-1.2-2.7-.8-3 .3-.4.1-.7-.5-.7-.7 0-1.2-.5-1.2-1 0-.6-1.8-4.9-4-9.6-2.2-4.7-4-8.8-4-9 0-.3-2.8-6.6-7-15.9-3.2-7-6.7-14.9-14.5-32.7-4.2-9.5-9-20.1-10.6-23.6-1.6-3.5-2.7-6.8-2.3-7.5.4-.7.3-.9-.1-.4-1.1 1-3.7-5.1-2.8-6.7.3-.6.2-.7-.3-.3-1 1-5.6-9.1-4.7-10.6.3-.5.2-.7-.3-.4-.6.3-1.6-.9-2.3-2.6-2.8-6.7-4.4-10.3-6.2-14-1.1-2.1-1.7-4.2-1.4-4.7.3-.4.1-1-.4-1.2-.5-.1-3.7-6.6-7.1-14.3-3.4-7.7-6.7-15.1-7.5-16.5-.7-1.4-1.4-2.8-1.5-3.2 0-.4-1.5-3.8-3.2-7.5-2.8-6.2-4.9-11.1-5.3-12.3-.1-.3-1.1-2.6-2.3-5.3-2.9-6.3-6.1-13.6-6.2-14.2-.1-.2-1.8-3.9-3.9-8.2-2-4.3-4.3-9.4-5.1-11.3-.7-1.9-1.7-4-2.3-4.7-.5-.7-.6-1.6-.3-2.2.3-.5-.1-1.1-.9-1.5-.8-.3-1.5-1.2-1.5-2.1 0-.9-.7-2.7-1.6-4-.9-1.4-1.4-2.5-1-2.5.3 0-.3-1.6-1.4-3.6-1.1-1.9-1.7-4-1.4-4.6.5-.7.2-.8-.6-.3-1 .6-1.2.4-.7-.8.3-1 .2-1.7-.4-1.7-.6 0-.7-.5-.4-1 .3-.6.2-1-.4-1-.8 0-1.7-1.8-2.6-5-.1-.3-1-2.3-2-4.5s-1.9-4.2-2-4.5c-.1-.3-1.2-2.6-2.4-5.3-1.2-2.6-1.9-5.3-1.5-6 .4-.6.4-.9-.1-.5-.7.7-2.5-2.6-6.9-12.5-.9-2-1.4-4.2-1-4.9.4-.6.3-.8-.3-.5-1.2.8-7.6-14-6.7-15.5.4-.6.3-.8-.3-.5-1.3.8-3.6-4.1-2.7-5.5.4-.7.2-.8-.4-.4-.7.4-1.2.2-1.2-.3 0-.6-1.3-3.9-2.9-7.3-4.6-10-9.1-20.6-9.1-21.5 0-.5-.6-1.5-1.2-2.2-.7-.6-1.3-1.5-1.4-1.9-.1-.8-1.2-3.5-5.3-12.5-1.7-3.8-2.8-7.3-2.5-7.8.3-.5.1-.9-.4-.9s-2.2-2.8-3.7-6.3c-1.6-3.4-4.5-9.9-6.7-14.5-2.1-4.6-3.8-8.5-3.8-8.8 0-.2-1-2.4-2.1-4.9-1.8-3.9-1.9-4.8-.8-6.3 1.2-1.5 1.2-1.6-.2-.5s-1.8.7-3.4-2.6c-.9-2.2-1.4-4.4-1-5 .3-.6.3-1-.2-.9-.4.2-.9 0-1.1-.4-.1-.5-1.6-3.4-3.2-6.7-1.7-3.2-2.9-6.5-2.7-7.2.2-.8.2-1-.1-.5-.3.5-1.5-1.7-2.9-4.8-1.3-3.1-2.1-6.2-1.7-6.8.4-.6.3-.8-.3-.5-.9.6-2.2-1.9-7.1-13.3-1.1-2.5-3.2-7.1-4.6-10.3-1.5-3.2-2.4-6.3-2-7 .4-.6.3-.9-.1-.4-.9.7-7.5-12.4-7.5-14.9 0-.8-.4-1.4-1-1.4-.5 0-.9-.3-.8-.8.1-.7-1.3-4-6.1-14.7-1.5-3.3-4-8.9-5.6-12.5-1.5-3.6-3.8-8.8-5-11.5-1.3-2.8-3.3-7.3-4.5-10-1.2-2.8-3.4-7.5-4.7-10.5-6.4-13.8-7.3-16.2-6.7-17.3.4-.7.4-.9-.1-.5-.4.4-2.1-2.3-3.8-6-1.7-3.7-3.9-8.6-4.9-10.9-1.1-2.3-1.6-4.8-1.2-5.4.4-.7.3-.9-.3-.6-1.4.9-3.7-4.8-2.7-6.4.4-.7.3-1-.3-.6s-1.8-1.3-2.8-3.6c-1.1-2.3-3.6-8-5.8-12.7-2.1-4.7-3.9-9.3-4-10.3-.1-.9-.4-1.7-.8-1.7-.3 0-1.4-1.9-2.4-4.3-1-2.3-3.5-7.8-5.5-12.2-2.1-4.4-4-9-4.4-10.2-.4-1.2-2.2-5.3-4.1-9.2-1.9-4-3.5-7.5-3.5-7.9 0-.4-.9-2.4-2-4.5-1.1-2-2-3.9-2.1-4.2 0-.2-1.4-3.5-3-7.2-4.4-9.7-10.9-24.3-12.6-28-.8-1.8-1.2-3.7-.8-4.3.3-.5-.1-1.3-.9-1.6-1.3-.5-4.3-7.3-3.7-8.3.2-.2-.1-.7-.6-1-1.1-.7-13.9-29.4-13.5-30 .2-.2-.1-.7-.8-1.1-.6-.4-1.2-1.7-1.3-2.8-.1-1.2-.4-2.2-.7-2.2-.7 0-5.6-11.3-5.2-12.2.1-.5-.2-.8-.8-.8-.6 0-.9-.3-.8-.8.1-.4-.6-2.2-1.6-4-.9-1.9-1.5-4.1-1.1-5 .3-.9.3-1.3-.1-.9-.6.6-4.4-5.9-4.9-8.3-.1-.3-1.1-2.6-2.4-5.2-1.2-2.6-1.9-5.2-1.5-5.9.4-.7.3-.9-.3-.6-1.3.8-5.6-9.1-4.6-10.6.3-.5.1-.7-.4-.4-1.3.8-4.6-7-3.7-8.6.4-.7.3-.9-.1-.4-1.1 1-3.7-5.1-2.8-6.7.3-.6.2-.7-.3-.3-.4.4-2-1.8-3.5-5-2.5-5.4-2.6-5.9-1.1-7.8 1-1.1 1-1.5.2-.8s-1.7 1.3-2.1 1.3c-1.4 0-1.9-3.3-.8-4.6 1-1.2.8-1.3-.6-.7-1.5.5-1.7.3-1.2-1.1.4-.9.3-1.5-.2-1.2-.9.6-4.6-7-4.4-9.1 0-.7-.3-1-.8-.8-.4.3-1.8-1.3-3-3.6-1.1-2.3-2.5-4.7-3-5.3-4.3-5.3-8.7-12.1-8.3-12.8.3-.5.1-.7-.4-.6-1.3.4-8.3-7.3-7.6-8.4.3-.5.1-.7-.4-.6-1.4.5-14.4-12-13.7-13.2.3-.6 0-.7-.9-.4-.9.3-3.2-.7-5.3-2.4-2.1-1.6-7.2-5.1-11.3-7.8-4.1-2.7-7.7-5.2-7.8-5.7-.2-.4-.8-.5-1.3-.1-.5.3-.9 0-.9-.6s-.4-.9-.9-.5c-.5.3-1.7-.3-2.7-1.2-1-1-1.9-1.6-2.1-1.4-.7.6-6.3-2.1-6.3-3 0-.5-.3-.8-.7-.8-2 .3-4.4-.2-4-.9.3-.4-.9-.8-2.6-.8-1.7-.1-3.3-.6-3.5-1.3-.2-.6-.8-.8-1.4-.5-.5.3-1.6-.2-2.4-1.2-.9-1.1-1.3-1.3-.9-.7.8 1.7.2 1.6-4.3-.3-2-.9-5.6-1.8-8-2-2.4-.2-4.8-.7-5.5-1.1-.6-.4-2.8-.8-4.7-1-6.5-.6-10.5-1.1-10.5-1.2 0-.6-29.9-.5-30.8.1zm21.8 564.5c-.2.7 0 1.2.6 1 .5-.1 2.4 3.2 4.3 7.3 1.8 4.1 4.3 9.7 5.5 12.5 1.3 2.7 2.9 6.3 3.6 8 .7 1.6 3.2 7 5.4 11.8 2.3 4.9 4.1 9.1 4.1 9.3 0 .2 1.2 2.9 2.6 6.1 1.5 3.2 3.7 8.2 5.1 11.2 1.3 2.9 2.5 5.8 2.6 6.5.1.6.4 1.3.7 1.6.3.3 1.8 3.4 3.4 7 1.5 3.6 3.9 9 5.3 12s2.9 6.4 3.4 7.5c.4 1.1 2.4 5.6 4.4 9.9 2 4.4 3.3 8.6 3.1 9.3-.3.8-.1 1.1.4.8.6-.3 1.3.2 1.7 1.2.9 2.6 3 7.6 15 34.3 1.3 3 3.1 6.7 3.9 8.2.8 1.5 1.5 3 1.5 3.3 0 .4 2.2 5.5 7 16.2 1 2.4 1.9 4.8 1.9 5.4 0 .6.7 1.7 1.6 2.6.8.9 1.3 2.1 1 2.8-.3.8.2 1.6 1 1.9.8.3 1.3.9 1.3 1.3-.1.4.4 2.4 1.2 4.3.7 1.9 1.2 3.8 1.1 4.2-.1.5.2.8.7.8 1 0 2.7 3.9 2.3 5.2-.1.5.3.8.9.8.6 0 .9.9.6 2-.3 1.1-.2 1.8.2 1.6.8-.5 10.7 21.3 10.5 23.1-.1.7.2 1 .7.7.5-.3.9-.1.9.4s.8 2.7 1.7 4.8c.9 2.2 1.7 4.1 1.8 4.4.1.3 1.4 3.2 2.9 6.5 7.6 16.4 9.6 21.5 9 23.2-.4 1.3-.3 1.4.3.5.7-.9 1.9.8 4.1 6 3.4 8.3 9.8 22.4 11.3 25 .5 1 .9 2.5.9 3.3 0 .8.4 1.5.9 1.5s1.2 1.1 1.5 2.4c.3 1.3 3.8 9.4 7.7 18 3.9 8.6 6.7 16.1 6.3 16.7-.4.7-.3.9.3.6 1.3-.8 4.6 6.9 3.7 8.4-.3.5 0 .8.6.7.7-.2 1.4.4 1.5 1.2.3 1.5 6.7 16.1 8.6 19.3.5 1 .7 2.2.4 2.7-.4.6-.2 1 .3 1s1.5 1.5 2.2 3.2c.8 1.8 3.1 7 5.2 11.6s3.6 8.8 3.2 9.5c-.4.7-.3.9.1.5.8-.8 8.7 15.4 8.8 17.9 0 .7.4 1.3.9 1.3s.6 1 .3 2.1c-.5 1.3-.3 1.9.3 1.5 1.3-.8 3.6 4.9 2.6 6.5-.4.7-.3 1 .3.6 1.4-.9 3.7 4.8 2.7 6.4-.4.7-.3 1 .3.6 1.4-.8 4.7 5.9 3.7 7.5-.5.7-.3.8.6.3.8-.5 1.1-.3.8.6-.3.8.1 2 .9 2.7.7.8 1.1 1.8.8 2.3-.4.5-.1.9.5.9s.8.4.5 1c-.3.5-.1 1 .5 1s.9.4.6.9c-.7 1-2.5.9-4.3-.2-.8-.5-1.3-.3-1.3.5 0 .9-.3.9-1-.2-.5-.8-1-1-1-.4 0 1.2-2.9 1.2-4.8 0-.6-.4-1.2-.3-1.2.3 0 1.1-1.9.9-3.9-.3-1-.6-1.2-.5-.7.2.4.7.3 1.2-.3 1.2-.5 0-1.3-.5-1.6-1-.4-.7-1.2-.7-1.8-.2-.7.4-7.7.8-15.7.7-11.1-.1-14.4-.4-14.2-1.4.1-.7-.2-1-.8-.6-.6.3-.8 1-.6 1.4.4.6-10.4.7-12.9.1-.5-.1-1.3-.1-1.7 0-2.3.8-9.4.4-10-.5-.5-.7-.8-.6-.8.1 0 1.3-5 1.2-7-.1-.8-.5-1.1-.4-.6.3.4.7-.5.9-2.6.7-1.8-.2-3.5-.4-3.8-.5-.3-.1-.9-.1-1.5 0-2.9.8-14.5.4-14.5-.5 0-.6-.3-.6-.8.1-.9 1.3-14.4 1.3-15.4-.1-.5-.6-.8-.6-.8.2 0 1.3-5.9 1.1-8.1-.2-.7-.5-1-.4-.6.2.7 1-12.8 1.1-13.9 0-.4-.3-1.4-.3-2.3.2-1.4.7-8.8.8-11.6.1-.5-.1-1.3-.1-1.7 0-2.3.8-9.4.4-10-.5-.5-.6-.8-.6-.8 0 0 1.2-20.9 1.3-22.9.1-.9-.6-1.2-.5-.8.1.7 1-12.8 1.1-13.9 0-.4-.3-1.4-.3-2.3.2-1.4.7-8.8.8-11.6.1-.5-.1-1.2-.1-1.5 0-1.7.8-10 .4-10-.4 0-.7-.3-.8-.8-.1-1 1.4-29.5 1.4-30.4 0-.5-.7-.8-.7-.8.1 0 1.3-14.2 1.3-15.2-.1-.5-.6-.8-.6-.8.2 0 1.3-5.9 1.1-8.1-.2-.7-.5-1-.4-.6.2.7 1-12.8 1.1-13.9 0-.4-.3-1.4-.3-2.3.2-1.4.7-8.8.8-11.6.1-.5-.1-1.3-.1-1.7 0-2.3.8-9.4.4-10-.5-.5-.7-.8-.6-.8.1 0 1.3-5 1.2-7-.1-.8-.5-1.1-.4-.6.3.4.7-.5.9-2.6.7-1.8-.2-3.5-.4-3.8-.5-.3-.1-.9-.1-1.5 0-2.9.8-14.5.4-14.5-.5 0-.7-.3-.7-.8 0-.8 1.3-7.1 1.4-8.9.2-.7-.5-1.3-.5-1.3 0 0 .4-3.2.8-7 .8-3.9 0-7-.3-7-.8 0-.4-.6-.5-1.2 0-1.9 1.1-3.7 1.2-4.4.2-.3-.5-1-.7-1.5-.4-1.8 1.2-4.9 1.4-4.9.4 0-.6-.5-.7-1.2-.3-1.9 1.2-8.1 1.2-9.7 0-1.2-.9-1.3-.8-.6.4.8 1.3.7 1.3-.8.1-.9-.7-1.7-.9-1.7-.4 0 1.1-4.2.9-6.1-.3-.7-.4-1-.3-.6.3.5.7-.6 1-2.8.9-1.9-.2-3.5-.6-3.5-.9v-1.8c0-.5.5-.7 1.2-.3.7.4.8.3.4-.5-.4-.6-.2-1.9.6-2.8.7-.9 1.2-1.7 1-1.7-.5-.1 1.4-5 4.8-12.4 1.7-3.5 3-6.8 3-7.3s.4-.9.8-.9c.5 0 .9-.6.9-1.3 0-.6 1.5-4.4 3.3-8.2 1.7-3.9 3.8-8.4 4.5-10 .7-1.7 3.2-7.4 5.5-12.7 2.5-5.6 4.7-9.5 5.3-9.1.5.3.7.1.4-.4-.9-1.4 1.2-7.3 2.6-7.3.6 0 .8-.3.4-.6-.5-.6 4.1-12.3 5.3-13.4.3-.3.6-1 .7-1.5.1-.6 1.2-3.3 2.4-6 1.2-2.8 2.2-5.3 2.1-5.8-.1-.4.2-.7.7-.7.5 0 1.2-1.1 1.5-2.4.9-3.7 6.8-16.1 7.7-16.4.5-.2.7-.8.4-1.2-.3-.5-.1-1.7.4-2.7.6-1 2.3-4.7 3.9-8.3 1.6-3.6 3.7-8.4 4.7-10.7 1-2.3 2.3-3.9 2.8-3.6.6.4.7.1.2-.6-.4-.7-.2-2.3.4-3.4.5-1.2 2.5-5.7 4.4-10 1.8-4.2 3.7-7.4 4.2-7 .4.5.5.3.1-.4-.3-.6.7-4 2.3-7.5 1.6-3.5 3.9-8.6 5.2-11.5 1.3-2.8 2.7-4.9 3.3-4.6.5.4.6.1.2-.6-1-1.6 1.3-7.3 2.7-6.4.5.3.7.1.4-.4-.8-1.3 2-8.5 3.7-9.5.6-.4.8-.8.4-.8-.7 0 .5-3.1 5.5-14 2.4-5.4 4.5-10 9.4-21 1.3-3 3-6.9 3.8-8.5 3.4-7.7 7.3-16.5 12.7-28.8 1.9-4.2 3.8-7.4 4.2-7 .4.4.4 0 .1-.9-.3-.8 0-2.2.7-2.9.7-.8 1.4-2.1 1.6-2.9.1-.8 1.9-5.2 3.9-9.8 2.7-6 4-8.1 5.1-7.7 1.2.4 1.2.2.3-.8-.8-1.1-.5-2.8 1.7-7.6 1.5-3.4 3.2-5.8 3.7-5.4.4.4.5.3.2-.3-.7-1.2 2.4-10.2 3.9-11.2.5-.4 1-1.5 1.2-2.6.2-1 1.8-4.8 3.6-8.5 1.7-3.6 3.3-6.9 3.4-7.3.3-.8 3.3-8 5.9-14.1.9-2 2.1-3.7 2.6-3.7.4 0 .6-.4.3-.8-.2-.4.2-2.1.9-3.7.8-1.7 3.9-8.5 6.8-15.3 2.9-6.7 5.7-11.9 6.2-11.5.4.5.5.3.2-.4-1-1.6.3-4.4 1.6-3.6.5.3.7.1.4-.4-.9-1.4 1.2-7.3 2.5-7.3.5 0 .7-.3.4-.8-.2-.4.9-3.4 2.5-6.7 1.6-3.3 2.9-6.5 2.9-7.3 0-.7.5-1 1.2-.6.6.4.8.3.4-.4-.3-.5.9-4.3 2.7-8.4 1.9-4 3.9-8.8 4.6-10.6.8-1.7 1.8-3.2 2.4-3.2.6 0 .8-.3.5-.6-.5-.4 6.9-18.5 8.9-21.8.7-1.1 6.4 12.6 5.8 14.1z"/><path d="M967.5 741.1c-.4.6-.5 1.2-.2 1.5.2.3.7-.2 1-1.1.7-1.7.1-2-.8-.4zM1039.5 758c-.3.5-.1 1 .4 1 .6 0 1.1-.5 1.1-1 0-.6-.2-1-.4-1-.3 0-.8.4-1.1 1zM831.3 1046.5c0 .8.4 1.2.9.9.5-.3.6-1 .3-1.5-.9-1.3-1.2-1.1-1.2.6zM823 1063.4c0 .2.7.7 1.6 1 .8.3 1.2.2.9-.4-.6-1-2.5-1.4-2.5-.6zM835 1116.1c0 .5.5.7 1 .4.6-.3 1-.8 1-1.1 0-.2-.4-.4-1-.4-.5 0-1 .5-1 1.1zM803.5 1119.1c-.4.6-.5 1.2-.2 1.5.2.3.7-.2 1-1.1.7-1.7.1-2-.8-.4zM799 1127.4c0 .2.7.7 1.6 1 .8.3 1.2.2.9-.4-.6-1-2.5-1.4-2.5-.6zM789.3 1130.5c0 .8.4 1.2.9.9.5-.3.6-1 .3-1.5-.9-1.3-1.2-1.1-1.2.6zM943 105.5c0 .7 3 1.3 3.4.7.3-.4-.4-.9-1.5-.9-1-.1-1.9 0-1.9.2zM1053.6 106.2c.3.5 1 .6 1.5.3 1.3-.9 1.1-1.2-.6-1.2-.8 0-1.2.4-.9.9zM1068 108.5c-.7.9-1.1 1.7-.9 2 .3.2 1-.5 1.7-1.5 1.4-2.4 1-2.6-.8-.5zM933 112.1c0 .5.5.7 1 .4.6-.3 1-.8 1-1.1 0-.2-.4-.4-1-.4-.5 0-1 .5-1 1.1zM867.5 135.1c-.4.6-.5 1.2-.2 1.5.2.3.7-.2 1-1.1.7-1.7.1-2-.8-.4zM1125.3 136.5c0 .8.4 1.2.9.9.5-.3.6-1 .3-1.5-.9-1.3-1.2-1.1-1.2.6zM875.6 154.5c-.9 2.6-.7 3.2.5 1.2.6-1 .9-2.1.6-2.3-.2-.3-.7.2-1.1 1.1zM856.6 176.2c.3.4.9.8 1.5.8.5 0 .9-.4.9-.8 0-.5-.7-.9-1.5-.9s-1.2.4-.9.9zM1143.5 182.9c-.3.5-.2 1.2.3 1.5.5.3.9-.1.9-.9 0-1.7-.3-1.9-1.2-.6zM852 188c-.9.6-1 1-.3 1 .6 0 1.5-.5 1.8-1 .8-1.2.4-1.2-1.5 0zM844 204c-.9.6-1 1-.3 1 .6 0 1.5-.5 1.8-1 .8-1.2.4-1.2-1.5 0zM842.1 212.4c-.9 1.1-.9 1.6.1 2.2.7.4 1 .4.6-.1-.4-.4-.3-1.4.3-2.2.6-.7.9-1.3.6-1.3-.2 0-1 .6-1.6 1.4zM831 220.1c0 .5.5.7 1 .4.6-.3 1-.8 1-1.1 0-.2-.4-.4-1-.4-.5 0-1 .5-1 1.1zM837.5 224.9c-.3.5-.2 1.2.3 1.5.5.3.9-.1.9-.9 0-1.7-.3-1.9-1.2-.6zM807.9 248.7c-1.3 1.6-1.2 1.7.4.4 1.6-1.3 2.1-2.1 1.3-2.1-.2 0-1 .8-1.7 1.7zM1375 670.4c0 .2.8 1 1.8 1.7 1.5 1.3 1.6 1.2.3-.4s-2.1-2.1-2.1-1.3zM637.5 674.9c-.3.5-.2 1.2.3 1.5.5.3.9-.1.9-.9 0-1.7-.3-1.9-1.2-.6zM1397 752.1c0 .5.5.7 1 .4.6-.3 1-.8 1-1.1 0-.2-.4-.4-1-.4-.5 0-1 .5-1 1.1zM1444 828c-.9.6-1 1-.3 1 .6 0 1.5-.5 1.8-1 .8-1.2.4-1.2-1.5 0zM543.5 868c-.3.5-.1 1 .4 1 .6 0 1.1-.5 1.1-1 0-.6-.2-1-.4-1-.3 0-.8.4-1.1 1zM1461.9 896.7c-1.3 1.6-1.2 1.7.4.4.9-.7 1.7-1.5 1.7-1.7 0-.8-.8-.3-2.1 1.3zM1509.6 1007.3c.3 1 .9 1.5 1.2 1.2.3-.3 0-1.1-.7-1.8-1-.9-1.1-.8-.5.6zM427 1115.9c0 .6.4 1.3 1 1.6.6.3.7-.1.4-.9-.7-1.8-1.4-2.1-1.4-.7zM427 1143.9c0 .6.4 1.2.8 1.5.5.3.9-.1.9-.9s-.4-1.5-.9-1.5c-.4 0-.8.4-.8.9zM1594.6 1197.8c-.3.5.1.9.9.9s1.2-.4.9-.9c-.3-.4-.7-.8-.9-.8-.2 0-.6.4-.9.8zM1599.6 1204.2c.3.5 1 .6 1.5.3 1.3-.9 1.1-1.2-.6-1.2-.8 0-1.2.4-.9.9zM390 1209.4c0 .2.8 1 1.8 1.7 1.5 1.3 1.6 1.2.3-.4s-2.1-2.1-2.1-1.3zM1605 1220.1c0 .5.5.7 1 .4.6-.3 1-.8 1-1.1 0-.2-.4-.4-1-.4-.5 0-1 .5-1 1.1zM387 1236.1c0 .5.5.7 1 .4.6-.3 1-.8 1-1.1 0-.2-.4-.4-1-.4-.5 0-1 .5-1 1.1zM1619.5 1244c-.3.5-.1 1 .4 1 .6 0 1.1-.5 1.1-1 0-.6-.2-1-.4-1-.3 0-.8.4-1.1 1zM697.3 1452.5c0 .8.4 1.2.9.9.5-.3.6-1 .3-1.5-.9-1.3-1.2-1.1-1.2.6zM705.3 1452.5c0 .8.4 1.2.9.9.5-.3.6-1 .3-1.5-.9-1.3-1.2-1.1-1.2.6zM713.3 1452.5c0 .8.4 1.2.9.9.5-.3.6-1 .3-1.5-.9-1.3-1.2-1.1-1.2.6zM753.3 1452.5c0 .8.4 1.2.9.9.5-.3.6-1 .3-1.5-.9-1.3-1.2-1.1-1.2.6zM761.3 1452.5c0 .8.4 1.2.9.9.5-.3.6-1 .3-1.5-.9-1.3-1.2-1.1-1.2.6zM865.3 1452.5c0 .8.4 1.2.9.9.5-.3.6-1 .3-1.5-.9-1.3-1.2-1.1-1.2.6zM873.3 1452.5c0 .8.4 1.2.9.9.5-.3.6-1 .3-1.5-.9-1.3-1.2-1.1-1.2.6zM913.3 1452.5c0 .8.4 1.2.9.9.5-.3.6-1 .3-1.5-.9-1.3-1.2-1.1-1.2.6zM921.3 1452.5c0 .8.4 1.2.9.9.5-.3.6-1 .3-1.5-.9-1.3-1.2-1.1-1.2.6zM1121.3 1452.5c0 .8.4 1.2.9.9.5-.3.6-1 .3-1.5-.9-1.3-1.2-1.1-1.2.6zM1129.3 1452.5c0 .8.4 1.2.9.9.5-.3.6-1 .3-1.5-.9-1.3-1.2-1.1-1.2.6zM1169.3 1452.5c0 .8.4 1.2.9.9.5-.3.6-1 .3-1.5-.9-1.3-1.2-1.1-1.2.6zM1177.3 1452.5c0 .8.4 1.2.9.9.5-.3.6-1 .3-1.5-.9-1.3-1.2-1.1-1.2.6zM1281.3 1452.5c0 .8.4 1.2.9.9.5-.3.6-1 .3-1.5-.9-1.3-1.2-1.1-1.2.6zM1289.3 1452.5c0 .8.4 1.2.9.9.5-.3.6-1 .3-1.5-.9-1.3-1.2-1.1-1.2.6zM279.5 1458.9c-.3.5-.2 1.2.3 1.5.5.3.9-.1.9-.9 0-1.7-.3-1.9-1.2-.6zM734.6 1464.2c.3.5 1 .6 1.5.3 1.3-.9 1.1-1.2-.6-1.2-.8 0-1.2.4-.9.9zM894.6 1464.2c.3.5 1 .6 1.5.3 1.3-.9 1.1-1.2-.6-1.2-.8 0-1.2.4-.9.9zM1150.6 1464.2c.3.5 1 .6 1.5.3 1.3-.9 1.1-1.2-.6-1.2-.8 0-1.2.4-.9.9zM639.9 1474.7c-1.3 1.6-1.2 1.7.4.4.9-.7 1.7-1.5 1.7-1.7 0-.8-.8-.3-2.1 1.3zM1375.6 1504.7c-.6 1.4-.5 1.5.5.6.7-.7 1-1.5.7-1.8-.3-.3-.9.2-1.2 1.2zM1750 1536c-.9.6-1 1-.3 1 .6 0 1.5-.5 1.8-1 .8-1.2.4-1.2-1.5 0zM1767.5 1568c.3.5.8 1 1.1 1 .2 0 .4-.5.4-1 0-.6-.5-1-1.1-1-.5 0-.7.4-.4 1zM1407.5 1585.9c-.3.5-.2 1.2.3 1.5.5.3.9-.1.9-.9 0-1.7-.3-1.9-1.2-.6zM490.6 1800.2c.3.5 1 .6 1.5.3 1.3-.9 1.1-1.2-.6-1.2-.8 0-1.2.4-.9.9zM469 1838.4c0 .2.8 1 1.8 1.7 1.5 1.3 1.6 1.2.3-.4s-2.1-2.1-2.1-1.3zM1567 1873.9c0 .6.4 1.3 1 1.6.6.3.7-.1.4-.9-.7-1.8-1.4-2.1-1.4-.7zM446 1887.4c0 .2.8 1 1.8 1.7 1.5 1.3 1.6 1.2.3-.4s-2.1-2.1-2.1-1.3zM1674.7 1904.1c.7.7 1.5 1 1.8.7.3-.3-.2-.9-1.2-1.2-1.4-.6-1.5-.5-.6.5z"/></svg>