<svg version="1" xmlns="http://www.w3.org/2000/svg" width="2730.667" height="2730.667" viewBox="0 0 2048.000000 2048.000000"><path d="M985.2 613.3c-21 46.3-47.1 104-58.1 128.2-10.9 24.2-58.8 129.9-106.4 235-47.6 105-121.4 268.1-164.1 362.3-42.7 94.2-77.6 171.5-77.6 171.7 0 .3 47.8.5 106.3.5h106.2l32.9-73 32.9-73 166.6.2 166.6.3 32.6 72.5 32.7 72.5 106.6.3c58.6.1 106.6-.1 106.6-.4 0-.5-224.5-496-234.9-518.4-1.6-3.6-15.1-33.3-29.9-66-25.7-56.8-78-172.1-147.4-325-17.6-38.8-32.3-70.8-32.7-71.2-.4-.5-17.9 37.1-38.9 83.5zm84.8 483c23.2 53.2 42.1 97 41.8 97.2-.3.3-40.1.4-88.6.3l-88.1-.3 23-52c12.7-28.6 32.7-73.9 44.6-100.8l21.6-48.7 1.7 3.7c.9 2.1 20.7 47.4 44 100.6z"/></svg>